<svg width="238" height="49" viewBox="0 0 238 49" fill="none" xmlns="http://www.w3.org/2000/svg">
<path d="M9.77699 27.0739C8.82605 26.5896 8.22728 25.6126 8.22728 24.5455V24.5455C8.22728 23.4783 8.82605 22.5014 9.77699 22.017L32.6469 10.369C34.2853 9.53454 36.2273 10.7248 36.2273 12.5635V12.5635C36.2273 13.5094 35.6856 14.3717 34.8335 14.7822L14.8922 24.3895C14.8456 24.412 14.797 24.3626 14.8201 24.3164V24.3164C14.8457 24.2651 14.9229 24.2833 14.9229 24.3406V24.7503C14.9229 24.8076 14.8457 24.8258 14.8201 24.7746V24.7746C14.797 24.7283 14.8456 24.6789 14.8922 24.7014L34.8335 34.3087C35.6856 34.7193 36.2273 35.5816 36.2273 36.5274V36.5274C36.2273 38.3662 34.2853 39.5564 32.6468 38.7219L9.77699 27.0739Z" fill="white"/>
<g clip-path="url(#clip0_303_59)">
<path d="M44.0167 19.3505V33.4123H41V15.8634H43.8545L44.0167 19.3505ZM43.4004 23.9729L42.0056 23.9242C42.0164 22.724 42.1732 21.6157 42.4759 20.5993C42.7787 19.5721 43.2274 18.6801 43.8221 17.9232C44.4168 17.1663 45.1575 16.5824 46.0441 16.1716C46.9307 15.7499 47.9579 15.539 49.1257 15.539C49.9475 15.539 50.7043 15.658 51.3963 15.8958C52.0884 16.1229 52.6885 16.4851 53.1967 16.9825C53.7048 17.4799 54.0995 18.1178 54.3806 18.8964C54.6618 19.6749 54.8023 20.6156 54.8023 21.7184V33.4123H51.8018V21.8644C51.8018 20.9453 51.645 20.2101 51.3315 19.6586C51.0287 19.1072 50.5962 18.7071 50.034 18.4584C49.4717 18.1989 48.8121 18.0692 48.0552 18.0692C47.1686 18.0692 46.4279 18.226 45.8332 18.5395C45.2386 18.8531 44.7628 19.2856 44.406 19.8371C44.0492 20.3885 43.7897 21.021 43.6275 21.7347C43.4761 22.4375 43.4004 23.1836 43.4004 23.9729ZM54.7699 22.3186L52.7587 22.9349C52.7696 21.9725 52.9263 21.0481 53.2291 20.1614C53.5427 19.2748 53.9914 18.4855 54.5753 17.7935C55.17 17.1015 55.8998 16.5554 56.7648 16.1553C57.6298 15.7445 58.6192 15.539 59.7329 15.539C60.6736 15.539 61.5062 15.6634 62.2306 15.9121C62.9659 16.1608 63.5822 16.5446 64.0796 17.0636C64.5878 17.5718 64.9716 18.226 65.2311 19.0261C65.4906 19.8262 65.6204 20.7778 65.6204 21.8806V33.4123H62.6036V21.8482C62.6036 20.8643 62.4469 20.102 62.1333 19.5613C61.8305 19.0099 61.398 18.626 60.8358 18.4098C60.2843 18.1827 59.6248 18.0692 58.8571 18.0692C58.1975 18.0692 57.6136 18.1827 57.1054 18.4098C56.5972 18.6368 56.1701 18.9504 55.8241 19.3505C55.4781 19.7397 55.2132 20.1885 55.0294 20.6967C54.8564 21.2048 54.7699 21.7455 54.7699 22.3186Z" fill="white"/>
<path d="M80.5094 30.4118V21.3779C80.5094 20.6858 80.3688 20.0857 80.0877 19.5775C79.8174 19.0585 79.4065 18.6585 78.855 18.3773C78.3036 18.0962 77.6224 17.9557 76.8115 17.9557C76.0546 17.9557 75.3896 18.0854 74.8165 18.3449C74.2543 18.6044 73.8109 18.945 73.4866 19.3667C73.173 19.7884 73.0162 20.2425 73.0162 20.7291H70.0157C70.0157 20.102 70.1779 19.4802 70.5023 18.8639C70.8267 18.2476 71.2916 17.6907 71.8971 17.1934C72.5134 16.6852 73.2487 16.2851 74.1029 15.9932C74.9679 15.6904 75.9302 15.539 76.9899 15.539C78.2658 15.539 79.3903 15.7553 80.3634 16.1878C81.3474 16.6203 82.1151 17.2745 82.6665 18.1503C83.2288 19.0153 83.5099 20.102 83.5099 21.4103V29.5846C83.5099 30.1685 83.5585 30.7903 83.6559 31.4498C83.764 32.1094 83.9208 32.6771 84.1262 33.1528V33.4123H80.9959C80.8446 33.0663 80.7256 32.6068 80.6391 32.0337C80.5526 31.4498 80.5094 30.9092 80.5094 30.4118ZM81.0284 22.7727L81.0608 24.8811H78.0279C77.1737 24.8811 76.4114 24.9514 75.741 25.092C75.0706 25.2217 74.5084 25.4218 74.0542 25.6921C73.6001 25.9624 73.2541 26.303 73.0162 26.7139C72.7783 27.114 72.6594 27.5843 72.6594 28.1249C72.6594 28.6764 72.7837 29.1792 73.0324 29.6333C73.2811 30.0874 73.6542 30.4497 74.1515 30.72C74.6597 30.9795 75.2815 31.1092 76.0167 31.1092C76.9358 31.1092 77.7467 30.9146 78.4496 30.5253C79.1524 30.1361 79.7092 29.6603 80.1201 29.0981C80.5418 28.5358 80.7689 27.9898 80.8013 27.46L82.0826 28.9034C82.0069 29.3576 81.8015 29.8604 81.4663 30.4118C81.1311 30.9633 80.6824 31.4931 80.1201 32.0013C79.5687 32.4986 78.9091 32.9149 78.1414 33.2501C77.3845 33.5745 76.5303 33.7367 75.5788 33.7367C74.3894 33.7367 73.346 33.5042 72.4486 33.0393C71.5619 32.5743 70.8699 31.9526 70.3725 31.1741C69.886 30.3848 69.6427 29.5035 69.6427 28.5304C69.6427 27.5897 69.8265 26.7625 70.1941 26.0489C70.5617 25.3245 71.0916 24.7244 71.7836 24.2486C72.4756 23.762 73.3082 23.3944 74.2813 23.1457C75.2544 22.897 76.3411 22.7727 77.5413 22.7727H81.0284Z" fill="white"/>
<path d="M88.2134 8.5H91.2301V30.0063L90.9706 33.4123H88.2134V8.5ZM103.086 24.4919V24.8325C103.086 26.1084 102.935 27.2924 102.632 28.3844C102.329 29.4657 101.886 30.4064 101.302 31.2065C100.718 32.0067 100.005 32.6284 99.1612 33.0717C98.3178 33.515 97.3501 33.7367 96.258 33.7367C95.1443 33.7367 94.1657 33.5475 93.3223 33.169C92.4898 32.7798 91.787 32.2229 91.2139 31.4985C90.6408 30.774 90.1813 29.8982 89.8353 28.871C89.5001 27.8438 89.2676 26.6869 89.1379 25.4002V23.908C89.2676 22.6105 89.5001 21.4481 89.8353 20.4209C90.1813 19.3937 90.6408 18.5179 91.2139 17.7935C91.787 17.0582 92.4898 16.5014 93.3223 16.1229C94.1549 15.7337 95.1227 15.539 96.2255 15.539C97.3284 15.539 98.307 15.7553 99.1612 16.1878C100.015 16.6095 100.729 17.215 101.302 18.0043C101.886 18.7936 102.329 19.7397 102.632 20.8426C102.935 21.9347 103.086 23.1511 103.086 24.4919ZM100.069 24.8325V24.4919C100.069 23.6161 99.9883 22.7943 99.8261 22.0266C99.664 21.2481 99.4045 20.5669 99.0476 19.983C98.6908 19.3883 98.2205 18.9234 97.6366 18.5882C97.0527 18.2422 96.3337 18.0692 95.4795 18.0692C94.7226 18.0692 94.063 18.1989 93.5008 18.4584C92.9493 18.7179 92.479 19.0694 92.0897 19.5127C91.7005 19.9452 91.3815 20.4426 91.1328 21.0048C90.8949 21.5563 90.7165 22.1293 90.5976 22.724V26.6328C90.7706 27.3897 91.0517 28.1195 91.4409 28.8224C91.841 29.5144 92.3708 30.082 93.0304 30.5253C93.7008 30.9687 94.528 31.1903 95.5119 31.1903C96.3229 31.1903 97.0149 31.0281 97.5879 30.7038C98.1718 30.3686 98.6422 29.909 98.999 29.3251C99.3666 28.7413 99.6369 28.0655 99.8099 27.2978C99.9829 26.5301 100.069 25.7083 100.069 24.8325Z" fill="white"/>
<path d="M114.164 33.7367C112.942 33.7367 111.834 33.5313 110.839 33.1204C109.855 32.6987 109.006 32.1094 108.292 31.3525C107.59 30.5956 107.049 29.6982 106.671 28.6602C106.292 27.6221 106.103 26.4868 106.103 25.2542V24.573C106.103 23.1457 106.314 21.8752 106.735 20.7615C107.157 19.637 107.73 18.6855 108.455 17.907C109.179 17.1285 110.001 16.5392 110.92 16.1391C111.839 15.7391 112.79 15.539 113.774 15.539C115.029 15.539 116.11 15.7553 117.018 16.1878C117.937 16.6203 118.689 17.2258 119.273 18.0043C119.857 18.772 120.289 19.6803 120.57 20.7291C120.851 21.7671 120.992 22.9024 120.992 24.1351V25.4812H107.887V23.0322H117.991V22.8051C117.948 22.0266 117.786 21.2697 117.505 20.5345C117.234 19.7992 116.802 19.1937 116.207 18.7179C115.613 18.2422 114.802 18.0043 113.774 18.0043C113.093 18.0043 112.466 18.1503 111.893 18.4422C111.32 18.7233 110.828 19.145 110.417 19.7073C110.006 20.2696 109.687 20.9562 109.46 21.7671C109.233 22.5781 109.12 23.5133 109.12 24.573V25.2542C109.12 26.0868 109.233 26.8707 109.46 27.6059C109.698 28.3304 110.039 28.9683 110.482 29.5198C110.936 30.0712 111.482 30.5037 112.12 30.8173C112.769 31.1309 113.504 31.2876 114.326 31.2876C115.386 31.2876 116.283 31.0714 117.018 30.6389C117.753 30.2064 118.397 29.6279 118.948 28.9034L120.765 30.3469C120.386 30.92 119.905 31.466 119.321 31.985C118.737 32.5041 118.018 32.9257 117.164 33.2501C116.321 33.5745 115.321 33.7367 114.164 33.7367Z" fill="white"/>
<path d="M129.199 31.5958L134.081 15.8634H137.292L130.253 36.1209C130.091 36.5534 129.874 37.0183 129.604 37.5157C129.345 38.0239 129.009 38.5051 128.599 38.9592C128.188 39.4133 127.69 39.781 127.106 40.0621C126.533 40.354 125.847 40.5 125.047 40.5C124.809 40.5 124.506 40.4676 124.138 40.4027C123.771 40.3378 123.511 40.2837 123.36 40.2405L123.344 37.8077C123.43 37.8185 123.565 37.8293 123.749 37.8401C123.944 37.8617 124.079 37.8725 124.155 37.8725C124.836 37.8725 125.414 37.7806 125.89 37.5968C126.366 37.4238 126.766 37.1265 127.09 36.7048C127.425 36.2939 127.712 35.7262 127.95 35.0018L129.199 31.5958ZM125.614 15.8634L130.172 29.4873L130.95 32.65L128.793 33.7529L122.338 15.8634H125.614Z" fill="white"/>
<path d="M138.298 31.8229C138.298 31.3147 138.454 30.8876 138.768 30.5416C139.092 30.1847 139.557 30.0063 140.163 30.0063C140.768 30.0063 141.228 30.1847 141.541 30.5416C141.866 30.8876 142.028 31.3147 142.028 31.8229C142.028 32.3202 141.866 32.7419 141.541 33.0879C141.228 33.4339 140.768 33.6069 140.163 33.6069C139.557 33.6069 139.092 33.4339 138.768 33.0879C138.454 32.7419 138.298 32.3202 138.298 31.8229Z" fill="white"/>
<path d="M158.068 30.0063V8.5H161.085V33.4123H158.328L158.068 30.0063ZM146.261 24.8325V24.4919C146.261 23.1511 146.423 21.9347 146.748 20.8426C147.083 19.7397 147.553 18.7936 148.159 18.0043C148.775 17.215 149.505 16.6095 150.348 16.1878C151.202 15.7553 152.154 15.539 153.203 15.539C154.306 15.539 155.268 15.7337 156.09 16.1229C156.922 16.5014 157.625 17.0582 158.198 17.7935C158.782 18.5179 159.242 19.3937 159.577 20.4209C159.912 21.4481 160.144 22.6105 160.274 23.908V25.4002C160.155 26.6869 159.923 27.8438 159.577 28.871C159.242 29.8982 158.782 30.774 158.198 31.4985C157.625 32.2229 156.922 32.7798 156.09 33.169C155.257 33.5475 154.284 33.7367 153.17 33.7367C152.143 33.7367 151.202 33.515 150.348 33.0717C149.505 32.6284 148.775 32.0067 148.159 31.2065C147.553 30.4064 147.083 29.4657 146.748 28.3844C146.423 27.2924 146.261 26.1084 146.261 24.8325ZM149.278 24.4919V24.8325C149.278 25.7083 149.364 26.5301 149.537 27.2978C149.721 28.0655 150.002 28.7413 150.381 29.3251C150.759 29.909 151.24 30.3686 151.824 30.7038C152.408 31.0281 153.105 31.1903 153.916 31.1903C154.911 31.1903 155.727 30.9795 156.365 30.5578C157.014 30.1361 157.533 29.5792 157.922 28.8872C158.312 28.1952 158.614 27.4437 158.831 26.6328V22.724C158.701 22.1293 158.512 21.5563 158.263 21.0048C158.025 20.4426 157.712 19.9452 157.322 19.5127C156.944 19.0694 156.474 18.7179 155.911 18.4584C155.36 18.1989 154.706 18.0692 153.949 18.0692C153.127 18.0692 152.419 18.2422 151.824 18.5882C151.24 18.9234 150.759 19.3883 150.381 19.983C150.002 20.5669 149.721 21.2481 149.537 22.0266C149.364 22.7943 149.278 23.6161 149.278 24.4919Z" fill="white"/>
<path d="M173.039 33.7367C171.817 33.7367 170.708 33.5313 169.714 33.1204C168.73 32.6987 167.881 32.1094 167.167 31.3525C166.464 30.5956 165.924 29.6982 165.545 28.6602C165.167 27.6221 164.978 26.4868 164.978 25.2542V24.573C164.978 23.1457 165.189 21.8752 165.61 20.7615C166.032 19.637 166.605 18.6855 167.329 17.907C168.054 17.1285 168.876 16.5392 169.795 16.1391C170.714 15.7391 171.665 15.539 172.649 15.539C173.904 15.539 174.985 15.7553 175.893 16.1878C176.812 16.6203 177.564 17.2258 178.147 18.0043C178.731 18.772 179.164 19.6803 179.445 20.7291C179.726 21.7671 179.867 22.9024 179.867 24.1351V25.4812H166.762V23.0322H176.866V22.8051C176.823 22.0266 176.661 21.2697 176.38 20.5345C176.109 19.7992 175.677 19.1937 175.082 18.7179C174.487 18.2422 173.676 18.0043 172.649 18.0043C171.968 18.0043 171.341 18.1503 170.768 18.4422C170.195 18.7233 169.703 19.145 169.292 19.7073C168.881 20.2696 168.562 20.9562 168.335 21.7671C168.108 22.5781 167.994 23.5133 167.994 24.573V25.2542C167.994 26.0868 168.108 26.8707 168.335 27.6059C168.573 28.3304 168.913 28.9683 169.357 29.5198C169.811 30.0712 170.357 30.5037 170.995 30.8173C171.644 31.1309 172.379 31.2876 173.201 31.2876C174.26 31.2876 175.158 31.0714 175.893 30.6389C176.628 30.2064 177.272 29.6279 177.823 28.9034L179.64 30.3469C179.261 30.92 178.78 31.466 178.196 31.985C177.612 32.5041 176.893 32.9257 176.039 33.2501C175.196 33.5745 174.195 33.7367 173.039 33.7367Z" fill="white"/>
<path d="M188.479 30.7038L193.28 15.8634H196.345L190.036 33.4123H188.025L188.479 30.7038ZM184.473 15.8634L189.42 30.7848L189.76 33.4123H187.749L181.391 15.8634H184.473Z" fill="white"/>
</g>
<path d="M227.678 22.017C228.628 22.5014 229.227 23.4783 229.227 24.5455V24.5455C229.227 25.6126 228.628 26.5896 227.678 27.0739L204.808 38.7219C203.169 39.5564 201.227 38.3662 201.227 36.5274V36.5274C201.227 35.5816 201.769 34.7193 202.621 34.3087L222.562 24.7014C222.609 24.6789 222.658 24.7283 222.634 24.7746V24.7746C222.609 24.8258 222.532 24.8076 222.532 24.7503V24.3406C222.532 24.2833 222.609 24.2651 222.634 24.3164V24.3164C222.658 24.3627 222.609 24.412 222.562 24.3895L202.621 14.7822C201.769 14.3717 201.227 13.5094 201.227 12.5635V12.5635C201.227 10.7248 203.169 9.53454 204.808 10.369L227.678 22.017Z" fill="white"/>
<defs>
<clipPath id="clip0_303_59">
<rect width="156" height="32" fill="white" transform="translate(41 8.5)"/>
</clipPath>
</defs>
</svg>
