<svg width="64" height="64" viewBox="0 0 64 64" fill="none" xmlns="http://www.w3.org/2000/svg">
<circle cx="32" cy="32" r="32" fill="#212121"/>
<path d="M10 32.5042V32.3581C10 30.2344 10.2387 28.3152 10.716 26.6006C11.1934 24.8763 11.8023 23.3663 12.5426 22.0707C13.283 20.775 14.0624 19.7034 14.8807 18.8558C15.699 17.9985 16.454 17.3799 17.1457 17L17.7156 18.7828C17.1408 19.2212 16.5563 19.8251 15.962 20.5948C15.3775 21.3644 14.8369 22.3093 14.34 23.4297C13.8529 24.55 13.4584 25.8505 13.1564 27.3313C12.8544 28.812 12.7034 30.4779 12.7034 32.3289V32.5335C12.7034 34.3844 12.8544 36.0551 13.1564 37.5457C13.4584 39.0264 13.8529 40.3318 14.34 41.4619C14.8369 42.592 15.3775 43.5515 15.962 44.3406C16.5563 45.1395 17.1408 45.7727 17.7156 46.2403L17.1457 47.8769C16.454 47.497 15.699 46.8784 14.8807 46.0211C14.0624 45.1736 13.283 44.102 12.5426 42.8063C11.8023 41.5203 11.1934 40.0152 10.716 38.2909C10.2387 36.5666 10 34.6377 10 32.5042Z" fill="#006064"/>
<path d="M19.6454 37.9647V29.5438H20.8954V30.8595H21.005C21.1805 30.41 21.4637 30.0609 21.8548 29.8124C22.2459 29.5602 22.7155 29.4341 23.2638 29.4341C23.8193 29.4341 24.2817 29.5602 24.6508 29.8124C25.0236 30.0609 25.3142 30.41 25.5225 30.8595H25.6103C25.8259 30.4246 26.1494 30.0792 26.5806 29.8234C27.0119 29.5639 27.5291 29.4341 28.1322 29.4341C28.8851 29.4341 29.5009 29.6699 29.9797 30.1413C30.4585 30.6092 30.6979 31.3383 30.6979 32.3288V37.9647H29.4041V32.3288C29.4041 31.7075 29.2341 31.2634 28.8942 30.9966C28.5543 30.7298 28.1541 30.5964 27.6936 30.5964C27.1015 30.5964 26.6428 30.7755 26.3175 31.1337C25.9922 31.4882 25.8295 31.9377 25.8295 32.4823V37.9647H24.5138V32.1972C24.5138 31.7184 24.3584 31.3328 24.0478 31.0405C23.7371 30.7444 23.3369 30.5964 22.8471 30.5964C22.5109 30.5964 22.1965 30.6859 21.9041 30.865C21.6154 31.0441 21.3815 31.2926 21.2024 31.6106C21.027 31.9249 20.9392 32.2886 20.9392 32.7016V37.9647H19.6454Z" fill="#006064"/>
<path d="M34.0066 38.0525C33.7361 38.0525 33.504 37.9556 33.3103 37.7619C33.1166 37.5682 33.0197 37.3361 33.0197 37.0656C33.0197 36.7952 33.1166 36.5631 33.3103 36.3694C33.504 36.1756 33.7361 36.0788 34.0066 36.0788C34.277 36.0788 34.5091 36.1756 34.7028 36.3694C34.8965 36.5631 34.9934 36.7952 34.9934 37.0656C34.9934 37.2447 34.9477 37.4092 34.8563 37.559C34.7686 37.7089 34.6498 37.8295 34.5 37.9209C34.3538 38.0086 34.1893 38.0525 34.0066 38.0525Z" fill="#006064"/>
<path d="M40.495 38.1402C39.7932 38.1402 39.1737 37.9629 38.6365 37.6084C38.0992 37.2502 37.6789 36.7458 37.3755 36.0952C37.0721 35.441 36.9205 34.668 36.9205 33.7762C36.9205 32.8917 37.0721 32.1241 37.3755 31.4736C37.6789 30.823 38.101 30.3204 38.6419 29.9659C39.1829 29.6114 39.8079 29.4341 40.5169 29.4341C41.0652 29.4341 41.4983 29.5255 41.8163 29.7082C42.1379 29.8873 42.3828 30.092 42.5509 30.3223C42.7227 30.5489 42.8561 30.7353 42.9511 30.8815H43.0608V26.7368H44.3546V37.9647H43.1046V36.6709H42.9511C42.8561 36.8244 42.7209 37.0181 42.5454 37.252C42.37 37.4823 42.1196 37.6888 41.7943 37.8715C41.469 38.0506 41.0359 38.1402 40.495 38.1402ZM40.6704 36.9779C41.1894 36.9779 41.628 36.8427 41.9862 36.5722C42.3444 36.2981 42.6167 35.9198 42.8031 35.4373C42.9895 34.9512 43.0827 34.3902 43.0827 33.7542C43.0827 33.1256 42.9913 32.5755 42.8086 32.104C42.6258 31.6289 42.3554 31.2597 41.9972 30.9966C41.639 30.7298 41.1967 30.5964 40.6704 30.5964C40.1222 30.5964 39.6653 30.7371 39.2998 31.0185C38.938 31.2963 38.6657 31.6746 38.483 32.1534C38.3039 32.6285 38.2143 33.1621 38.2143 33.7542C38.2143 34.3537 38.3057 34.8982 38.4884 35.388C38.6748 35.8741 38.949 36.2615 39.3108 36.5503C39.6763 36.8354 40.1295 36.9779 40.6704 36.9779Z" fill="#006064"/>
<path d="M54 32.3727V32.5188C54 34.6426 53.7613 36.5617 53.284 38.2763C52.8066 40.0006 52.1978 41.5106 51.4574 42.8063C50.717 44.102 49.9376 45.1736 49.1193 46.0211C48.301 46.8784 47.546 47.497 46.8543 47.8769L46.2844 46.0942C46.8592 45.6558 47.4437 45.0518 48.038 44.2822C48.6225 43.5126 49.1632 42.5676 49.66 41.4473C50.1471 40.327 50.5416 39.0264 50.8436 37.5457C51.1456 36.0649 51.2966 34.399 51.2966 32.5481V32.3435C51.2966 30.4925 51.1456 28.8218 50.8436 27.3313C50.5416 25.8505 50.1471 24.5451 49.66 23.415C49.1632 22.285 48.6225 21.3254 48.038 20.5363C47.4437 19.7375 46.8592 19.1042 46.2844 18.6366L46.8543 17C47.546 17.3799 48.301 17.9985 49.1193 18.8558C49.9376 19.7034 50.717 20.775 51.4574 22.0707C52.1978 23.3566 52.8066 24.8617 53.284 26.586C53.7613 28.3103 54 30.2392 54 32.3727Z" fill="#006064"/>
</svg>
